<svg xmlns="http://www.w3.org/2000/svg" viewBox="0 0 96 96">
  <defs>
    <linearGradient id="mt" x1="0" y1="0" x2="0" y2="1">
      <stop offset="0" stop-color="#F4747E"/><stop offset="1" stop-color="#D03A4B"/>
    </linearGradient>
    <linearGradient id="fat" x1="0" y1="0" x2="0" y2="1">
      <stop offset="0" stop-color="#FFF3E6"/><stop offset="1" stop-color="#FBD9BC"/>
    </linearGradient>
  </defs>
  <ellipse cx="48" cy="79" rx="27" ry="5.5" fill="#0B0C12" opacity=".08"/>
  <!-- côte de bœuf -->
  <path d="M25 38 q-4 14 6 24 q10 10 26 8 q14 -2 16 -14 q2 -11 -8 -16 q-6 -3 -8 -9 q-2 -7 -10 -8 q-16 -2 -22 15Z" fill="url(#fat)"/>
  <path d="M30 40 q-3 11 5 19 q8 8 20 6 q11 -1 12 -10 q1 -8 -7 -12 q-5 -2 -7 -7 q-2 -5 -8 -6 q-11 -1 -15 10Z" fill="url(#mt)"/>
  <!-- marbrures -->
  <g stroke="#FFD9DC" stroke-width="2.4" stroke-linecap="round" fill="none" opacity=".9">
    <path d="M40 44 q6 2 9 8"/><path d="M52 46 q-2 6 3 10"/><path d="M38 54 q5 1 7 6"/>
  </g>
  <!-- os -->
  <path d="M56 24 q3 -6 8 -3 q5 3 2 8 l-6 9 q-3 5 -7 2 q-4 -3 -1 -7Z" fill="#FFF8F0"/>
  <circle cx="63" cy="23" r="3.4" fill="#FFF8F0"/><circle cx="68" cy="27" r="3.4" fill="#FFF8F0"/>
</svg>
