<svg xmlns="http://www.w3.org/2000/svg" viewBox="0 0 96 96">
  <defs>
    <linearGradient id="pp" x1="0" y1="0" x2="0" y2="1">
      <stop offset="0" stop-color="#C9A0F5"/><stop offset="1" stop-color="#8A4DFF"/>
    </linearGradient>
    <linearGradient id="wr" x1="0" y1="0" x2="0" y2="1">
      <stop offset="0" stop-color="#FFE9C9"/><stop offset="1" stop-color="#F5C98A"/>
    </linearGradient>
  </defs>
  <ellipse cx="48" cy="82" rx="21" ry="4.5" fill="#0B0C12" opacity=".08"/>
  <!-- tiges -->
  <g stroke="#3FA34D" stroke-width="3" stroke-linecap="round" fill="none">
    <path d="M40 38 q2 14 6 22"/><path d="M56 36 q-2 16 -7 24"/><path d="M48 30 q0 16 -1 30"/>
  </g>
  <path d="M38 50 q-8 -2 -10 -9 q9 -1 12 6Z" fill="#6FCB5A"/>
  <path d="M58 48 q8 -2 10 -9 q-9 -1 -12 6Z" fill="#6FCB5A"/>
  <!-- fleurs (tulipes) -->
  <g fill="url(#pp)">
    <path d="M33 26 q0 -7 7 -8 q7 1 7 8 q0 8 -7 10 q-7 -2 -7 -10Z"/>
    <path d="M49 22 q0 -7 7 -8 q7 1 7 8 q0 8 -7 10 q-7 -2 -7 -10Z"/>
  </g>
  <path d="M41 16 q0 -6 7 -7 q7 1 7 7 q0 8 -7 10 q-7 -2 -7 -10Z" fill="#FF7BAC"/>
  <g stroke="#FFFFFF" stroke-width="1.8" opacity=".55" fill="none">
    <path d="M40 20 v12"/><path d="M56 16 v12"/><path d="M48 11 v12"/>
  </g>
  <!-- papier kraft -->
  <path d="M34 52 l28 0 l-6 26 l-16 0 Z" fill="url(#wr)"/>
  <path d="M34 52 l14 0 l-7 26 l-1 0 Z" fill="#EDBB80" opacity=".55"/>
  <path d="M33 58 q15 4 30 0" stroke="#D89B5C" stroke-width="2.4" fill="none" stroke-linecap="round"/>
</svg>
